<?xml version="1.0" encoding="UTF-8"?>
<svg width="764px" height="204px" viewBox="0 0 764 204" version="1.1" xmlns="http://www.w3.org/2000/svg" xmlns:xlink="http://www.w3.org/1999/xlink">
    <!-- Generator: Sketch 52.4 (67378) - http://www.bohemiancoding.com/sketch -->
    <title>e-controle</title>
    <desc>Created with Sketch.</desc>
    <g id="e-controle" stroke="none" stroke-width="1" fill="none" fill-rule="evenodd">
        <g transform="translate(50.000000, 50.000000)" fill="#000000">
            <path d="M31.7,31.1 C48.8,31.1 60.7,45.2 60.7,65.8 C60.7,66.4 60.7,67.1 60.6,67.8 L3.9,67.8 C4.3,86.9 16.6,100.1 34.2,100.1 C40.8,100.1 48.3,98.2 55.8,94.2 L57.4,96.9 C49.3,101.2 41.1,103.2 34.1,103.2 C14.5,103.2 0.7,88.3 0.7,67.2 C0.6,45.9 13.5,31.1 31.7,31.1 Z M3.9,64.8 L57.3,64.8 C57.2,46.8 46.7,34.2 31.7,34.2 C15.9,34.2 4.9,46.5 3.9,64.8 Z" id="Shape" stroke="#000000" stroke-width="2"></path>
            <g id="Group" transform="translate(155.000000, 0.000000)" stroke="#000000" stroke-width="2">
                <path d="M33.2,31.1 C40.8,31.1 48.2,33.5 55.3,38.7 L53.6,41.4 C47.2,36.7 40.5,34.3 33.3,34.3 C16.3,34.3 4.3,47.9 4.3,67.3 C4.3,86.6 16.3,100.1 33.3,100.1 C40.4,100.1 47.1,97.7 53.6,93.1 L55.3,95.8 C48.2,100.8 40.7,103.2 33.2,103.2 C14.4,103.2 0.9,88.3 0.9,67.2 C1,45.9 14.4,31.1 33.2,31.1 Z" id="Path"></path>
                <path d="M100.2,31.1 C119.2,31.1 132.6,45.9 132.6,67.2 C132.6,88.3 119.2,103.2 100.2,103.2 C81.4,103.2 67.9,88.3 67.9,67.2 C68,45.9 81.4,31.1 100.2,31.1 Z M100.2,100 C117.2,100 129.2,86.4 129.2,67.2 C129.2,47.8 117.2,34.2 100.2,34.2 C83.2,34.2 71.4,47.8 71.4,67.2 C71.4,86.5 83.2,100 100.2,100 Z" id="Shape" fill-rule="nonzero"></path>
                <path d="M154,32.8 L156.9,32.8 L157.3,48.4 C161.6,37.5 171.6,31.1 183.4,31.1 C198.1,31.1 208.7,41.4 208.7,55.8 L208.7,101.5 L205.3,101.5 L205.3,56.1 C205.3,43.3 196,34.4 183,34.4 C168.4,34.4 157.4,45.5 157.4,61.7 L157.4,101.5 L154,101.5 L154,32.8 Z" id="Path"></path>
                <path d="M243,32.8 L267.7,32.8 L267.7,35.9 L243,35.9 L243,85.4 C243,94 249,100 257.4,100 C260.8,100 264.4,99.4 268.1,98.3 L268.8,101.4 C264.8,102.5 260.9,103.1 257.1,103.1 C246.8,103.1 239.5,95.8 239.5,85.5 L239.5,35.8 L223.6,35.8 L223.6,32.7 L239.5,32.7 L239.5,12.1 L242.9,12.1 L242.9,32.8 L243,32.8 Z" id="Path"></path>
                <path d="M287.8,32.8 L290.7,32.8 L291.1,48.5 C294.1,38.1 302.8,31.7 313.8,31.7 C316.7,31.7 319.8,32.1 322.9,33 L322,36.1 C319,35.2 316.1,34.8 313.6,34.8 C300.5,34.8 291.2,46.1 291.2,62.4 L291.2,101.5 L287.8,101.5 L287.8,32.8 Z" id="Path"></path>
                <path d="M364.7,31.1 C383.7,31.1 397.1,45.9 397.1,67.2 C397.1,88.3 383.7,103.2 364.7,103.2 C345.9,103.2 332.4,88.3 332.4,67.2 C332.4,45.9 345.8,31.1 364.7,31.1 Z M364.7,100 C381.7,100 393.7,86.4 393.7,67.2 C393.7,47.8 381.7,34.2 364.7,34.2 C347.7,34.2 335.9,47.8 335.9,67.2 C335.8,86.5 347.7,100 364.7,100 Z M363.2,0.8 L366.1,0.8 L383.4,17.7 L381.4,19.7 L364.7,3.8 L348,19.7 L346,17.7 L363.2,0.8 Z" id="Shape" fill-rule="nonzero"></path>
                <path d="M421.8,90.1 C421.8,96.2 425.7,100.1 431.8,100.1 C433.8,100.1 436.4,99.7 439.2,99 L439.8,102.1 C436.8,102.8 433.9,103.2 431.5,103.2 C423.4,103.2 418.4,98.3 418.4,90.1 L418.4,1 L421.8,1 L421.8,90.1 Z" id="Path"></path>
                <path d="M479.4,31.1 C496.5,31.1 508.4,45.2 508.4,65.8 C508.4,66.4 508.4,67.1 508.3,67.8 L451.6,67.8 C452,86.9 464.3,100.1 481.9,100.1 C488.5,100.1 496,98.2 503.5,94.2 L505.1,96.9 C497,101.2 488.8,103.2 481.8,103.2 C462.2,103.2 448.4,88.3 448.4,67.2 C448.3,45.9 461.1,31.1 479.4,31.1 Z M451.6,64.8 L505,64.8 C504.9,46.8 494.4,34.2 479.4,34.2 C463.6,34.2 452.6,46.5 451.6,64.8 Z" id="Shape" fill-rule="nonzero"></path>
            </g>
            <rect id="Rectangle" x="105.7" y="62.5" width="11.9" height="11.9"></rect>
        </g>
    </g>
</svg>