<?xml version="1.0" encoding="utf-8"?>
<!-- Generator: Adobe Illustrator 23.0.1, SVG Export Plug-In . SVG Version: 6.00 Build 0)  -->
<svg version="1.1" id="Calque_1" xmlns="http://www.w3.org/2000/svg" xmlns:xlink="http://www.w3.org/1999/xlink" x="0px" y="0px"
	 viewBox="0 0 1080 300" style="enable-background:new 0 0 1080 300;" xml:space="preserve">
<g>
	<g>
		<path d="M239.7,129.1c17.1,0,29,14.1,29,34.7c0,0.6,0,1.3-0.1,2h-56.7c0.4,19.1,12.7,32.3,30.3,32.3c6.6,0,14.1-1.9,21.6-5.9
			l1.6,2.7c-8.1,4.3-16.3,6.3-23.3,6.3c-19.6,0-33.4-14.9-33.4-36C208.6,143.9,221.5,129.1,239.7,129.1z M211.9,162.8h53.4
			c-0.1-18-10.6-30.6-25.6-30.6C223.9,132.2,212.9,144.5,211.9,162.8z"/>
	</g>
	<g>
		<path d="M396.2,129.1c7.6,0,15,2.4,22.1,7.6l-1.7,2.7c-6.4-4.7-13.1-7.1-20.3-7.1c-17,0-29,13.6-29,33c0,19.3,12,32.8,29,32.8
			c7.1,0,13.8-2.4,20.3-7l1.7,2.7c-7.1,5-14.6,7.4-22.1,7.4c-18.8,0-32.3-14.9-32.3-36C364,143.9,377.4,129.1,396.2,129.1z"/>
		<path d="M463.2,129.1c19,0,32.4,14.8,32.4,36.1c0,21.1-13.4,36-32.4,36c-18.8,0-32.3-14.9-32.3-36
			C431,143.9,444.4,129.1,463.2,129.1z M463.2,198c17,0,29-13.6,29-32.8c0-19.4-12-33-29-33c-17,0-28.8,13.6-28.8,33
			C434.4,184.5,446.2,198,463.2,198z"/>
		<path d="M517,130.8h2.9l0.4,15.6c4.3-10.9,14.3-17.3,26.1-17.3c14.7,0,25.3,10.3,25.3,24.7v45.7h-3.4v-45.4
			c0-12.8-9.3-21.7-22.3-21.7c-14.6,0-25.6,11.1-25.6,27.3v39.8H517V130.8z"/>
		<path d="M606,130.8h24.7v3.1H606v49.5c0,8.6,6,14.6,14.4,14.6c3.4,0,7-0.6,10.7-1.7l0.7,3.1c-4,1.1-7.9,1.7-11.7,1.7
			c-10.3,0-17.6-7.3-17.6-17.6v-49.7h-15.9v-3.1h15.9v-20.6h3.4V130.8z"/>
		<path d="M650.8,130.8h2.9l0.4,15.7c3-10.4,11.7-16.8,22.7-16.8c2.9,0,6,0.4,9.1,1.3l-0.9,3.1c-3-0.9-5.9-1.3-8.4-1.3
			c-13.1,0-22.4,11.3-22.4,27.6v39.1h-3.4V130.8z"/>
		<path d="M727.7,129.1c19,0,32.4,14.8,32.4,36.1c0,21.1-13.4,36-32.4,36c-18.8,0-32.3-14.9-32.3-36
			C695.4,143.9,708.8,129.1,727.7,129.1z M727.7,198c17,0,29-13.6,29-32.8c0-19.4-12-33-29-33s-28.8,13.6-28.8,33
			C698.8,184.5,710.7,198,727.7,198z M726.2,98.8h2.9l17.3,16.9l-2,2l-16.7-15.9L711,117.7l-2-2L726.2,98.8z"/>
		<path d="M784.8,188.1c0,6.1,3.9,10,10,10c2,0,4.6-0.4,7.4-1.1l0.6,3.1c-3,0.7-5.9,1.1-8.3,1.1c-8.1,0-13.1-4.9-13.1-13.1V99h3.4
			V188.1z"/>
		<path d="M842.4,129.1c17.1,0,29,14.1,29,34.7c0,0.6,0,1.3-0.1,2h-56.7c0.4,19.1,12.7,32.3,30.3,32.3c6.6,0,14.1-1.9,21.6-5.9
			l1.6,2.7c-8.1,4.3-16.3,6.3-23.3,6.3c-19.6,0-33.4-14.9-33.4-36C811.3,143.9,824.1,129.1,842.4,129.1z M814.6,162.8H868
			c-0.1-18-10.6-30.6-25.6-30.6C826.6,132.2,815.6,144.5,814.6,162.8z"/>
	</g>
	<rect x="313.7" y="160.5" width="11.9" height="11.9"/>
</g>
</svg>
