<?xml version="1.0" encoding="UTF-8"?>
<svg width="91.44mm" height="91.44mm" clip-rule="evenodd" fill-rule="evenodd" image-rendering="optimizeQuality" shape-rendering="geometricPrecision" text-rendering="geometricPrecision" version="1.1" viewBox="0 0 9144 9144" xmlns="http://www.w3.org/2000/svg">
 <defs>
  <style type="text/css">.fil1 {fill:white;fill-rule:nonzero} .fil0 {fill:url(#a)}</style>
  <linearGradient id="a" x1="10043" x2="-898.9" y1="6303" y2="2841" gradientUnits="userSpaceOnUse">
   <stop stop-color="#48CFAE" offset="0"/>
   <stop stop-color="#4FC0E8" offset="1"/>
  </linearGradient>
 </defs>
 <polygon class="fil0" points="0 0 9144 0 9144 9144 0 9144"/>
 <path class="fil1" d="m2712 2623h3720c49 0 89 40 89 89v3720c0 49-40 89-89 89h-3720c-49 0-89-40-89-89v-3720c0-49 40-89 89-89zm635 2033l-2-2-1-1-1-2h-1c-1-1-2-2-2-4h-1c-1-1-1-2-2-3l-1-1v-1l-1-1-1-1v-1l-1-1v-1l-1-1-1-2c-6-12-10-26-10-41v-507c0-49 40-89 88-89 25 0 47 10 63 27l867 867 1333-1333c35-34 91-34 125 0 17 17 26 40 26 62v508c0 15-4 29-10 41l-1 1v1l-1 1v1l-1 1-1 2-1 1v1l-1 1c-1 1-1 2-2 3h-1c0 1-1 2-2 4h-1l-1 1v1l-1 1-2 2h-1l-1394 1395c-35 34-91 34-125 0l-929-930h-1zm150-99l842 842 1308-1307v-259l-1245 1245c-35 34-91 34-125 0l-780-780v259zm2847-1757h-3544v3544h3544v-3544z"/>
</svg>
